<svg width="153" height="163" viewBox="0 0 153 163" fill="none" xmlns="http://www.w3.org/2000/svg">
<path d="M124.571 3.09336C151.817 12.4427 175.389 33.3227 182.62 61.2066C189.971 89.5538 180.616 120.431 160.522 141.734C142.343 161.005 114.188 161.204 87.7027 161.834C60.6688 162.477 29.9426 165.833 12.3981 145.256C-5.37279 124.413 -1.12625 93.4477 7.12928 67.3309C14.3495 44.4894 32.006 28.2328 53.0229 16.7371C75.4333 4.4791 100.41 -5.19717 124.571 3.09336Z" fill="#C0D6E8"/>
<path d="M26.9249 16.2736C33.272 17.3346 38.9887 21.0902 41.9667 26.8102C44.91 32.4635 44.4621 39.1677 41.8781 44.995C39.3366 50.7266 34.5966 55.1415 28.6049 56.943C22.4202 58.8026 15.5331 58.3456 10.3594 54.4718C5.24437 50.6418 3.13218 44.1747 3.00488 37.7746C2.88156 31.5746 5.09714 25.5561 9.70194 21.417C14.3948 17.1987 20.7084 15.2345 26.9249 16.2736Z" fill="#584EBD"/>
</svg>
